<svg xmlns="http://www.w3.org/2000/svg" viewBox="0 4 896 664">
  <defs/>
  <g fill="#000">
    <path d="M319 5l-10 1c-7 1-10 1-13 4-7 3-10 6-15 11l-9 8c-6 4-11 15-11 22l3 8c4 9 3 14-5 23-10 12-10 15-3 22 4 4 4 5 4 10-1 7-11 35-14 40-1 2-4 3-10 6-9 2-9 2-12 1-7-3-20-2-29 2-5 3-7 3-8 0l-2-2c-3 0-11 9-16 16-8 12-10 19-7 29l3 11c0 6 0 7-3 12l-4 6-4 7-5 8a220 220 0 01-15 25 309 309 0 01-41 47l-12 7c-18 12-44 25-58 30-13 4-16 6-19 13-4 8-2 15 6 29 7 13 15 19 24 20l11 2c7 2 32 2 39 0 5-2 7-2 24-2 37 1 43 1 48-2 6-3 11-8 14-14 2-4 3-7 3-15l-1-15c-1-4-1-4 1-8 4-5 7-9 19-19l23-22 14-13 2 3a613 613 0 0138 64 167 167 0 0035 39c10 4 12 5 46 5h32l5-3c7-3 14-10 22-21l9-12 8-10 5-8 3-5c1-4 5-4 5-1l1 6 2 9 3 11c1 6 7 17 10 20 4 5 15 12 21 14s52 2 62 1c20-3 34-10 52-28a173 173 0 0027-35 199 199 0 0022-35l4-5c2-1 2-1 9 6l21 17 32 26 5 5 1 10c0 12 1 17 8 24 6 7 11 8 40 9l48 2c33 0 40-1 49-12 4-5 5-10 5-16-2-9-8-15-24-21-7-2-17-8-32-19l-16-10c-14-7-21-13-33-28l-4-5-3-5-1-2-7-9-6-8a1151 1151 0 01-33-47l-5-6 1-8 2-12c1-12-10-29-22-33h-12l-10 4c-2 2-5 3-7 3l-10 3-9 3c-2 0-3-2-7-9-4-9-17-32-29-51-6-9-6-10-6-16l-2-11-2-8-1-5c-1-2-1-4 1-9 3-6 4-10 2-12l-8-4c-7-4-9-5-11-10l-5-8-3-6c0-3-4-10-8-14s-7-6-15-10c-5-3-6-3-14-3l-13-1c-3-1-5-1-11 3-6 2-9 3-14 3a38 38 0 00-34 22l-3 6c-5 8-6 11-7 21-2 15-2 25 1 30l5 11 2 7-2 3c-3 3-4 7-1 10 2 3 1 6-2 10s-4 5-1 8l1 4c0 3-9 16-11 16l-7-11-11-19c-8-9-9-11-8-13l-1-4-2-5-2-4-3-30c1-6-1-36-3-41-2-9-4-12-13-21s-10-10-17-12l-10-4c-3-1-35-2-36-1zm29 20l6 2c6 0 19 12 22 20a208 208 0 012 56c-2 1-2 3 1 7 2 2 2 4 2 5-1 2 0 3 1 5 2 1 2 3 2 4-1 1 0 2 1 3s2 5 0 5l-1 3c-1 2 0 3 3 6 9 8 14 14 18 22l7 12 16 29c5 9 7 11 8 6 4-11 11-25 22-40 6-10 7-13 6-18-1-4-1-4 1-6 2-3 3-6 1-8-3-2-2-6 0-7l5-2v-6l-4-7-3-9-4-11c-3-7-3-8-2-14a216 216 0 003-18l4-6c6-11 7-13 12-15 3-2 6-2 9-2 6 1 13-1 17-4 2-2 3-2 5-1h11c9 0 11 1 18 8 3 3 4 4 4 7l5 10 6 10c0 3 4 7 8 8l4 2c2 2 2 3 0 6v6l1 4c-1 2 0 5 1 8 3 6 4 12 2 14-3 1 0 9 9 23a1905 1905 0 0133 57c2 9 4 10 12 13s11 3 19-1c5-3 8-4 13-4 8 0 11-1 13-5s5-4 10 0l4 4-1 8c0 5 0 10-2 15-2 8-2 9-1 11l15 19 25 35c16 24 25 35 38 48 9 10 15 14 25 19l19 12c10 7 16 10 29 16l6 2c11 1 9 8-2 11-7 1-38 2-46 0l-27-1-23-1-4-5c-3-3-3-3-2-13 0-10 0-11-2-14a113 113 0 00-28-26l-11-9-25-19-15-22-5-7c-2-1-7 6-13 18-9 17-26 44-33 54-24 31-35 41-52 47-6 2-8 3-36 3-27 0-30-1-32-2-8-5-13-11-16-21l-4-22c0-5-4-20-6-23l-6-18c-5-13-6-16-8-15l-3 15c-2 7-6 17-13 26l-4 7c-7 13-9 17-17 25l-12 15-8 9-3 3h-26c-29 0-35 0-41-5-8-5-17-17-27-33l-10-16a752 752 0 01-42-75l-9 13c-1 3-16 18-49 50-11 10-18 18-20 21-2 4-2 14 0 18 2 5 1 14-1 17-2 6-6 8-16 7l-17-1c-9-1-23-1-34 2-13 3-23 3-29 2l-14-2-10-4c-3-1-3-2-3-6s0-4-3-6c-5-1-7-4-5-8 1-1 3-3 11-5a283 283 0 0098-63 2442 2442 0 0156-89l-2-6-2-7-2-7-2-5 3-6c4-7 6-9 11-8l6-1 8-3c5-2 5-2 10 0 7 3 14 3 21-1l9-3c12-4 13-5 17-14a240 240 0 0010-27c4-9 5-22 4-30l-5-6-3-4 7-8c6-7 6-7 6-12l1-9c0-4 0-6-2-10-1-2-2-5-1-7l9-9 12-12c3-3 4-3 23-3l8-2c4-2 10-1 15 2z"/>
    <path d="M302 137c-2 4-4 14-3 15 1 2 14-4 16-6 1-2 1-3-1-6-2-5-10-7-12-3zm239 4l-2 4-3 8-3 6c0 2 4 6 12 11 11 7 21 13 24 13 2 0 1-3-5-15-10-22-18-32-23-27zm-216 72l-8 4-15 9c-8 3-11 6-11 7l5 9a568 568 0 0133 50c3 7 7 11 8 11 2 0 3-5 3-17l1-21c1-8 1-9-1-14-4-9-8-24-8-32 0-5-1-8-3-8l-4 2zm220 14c-1 1 0 4 5 14l4 13c0 5 0 6-3 8l-11 7c-6 2-8 4-9 5-5 21-5 23-1 27l4 3 25-24c28-28 33-34 33-36 0-1-6-4-31-12l-8-3c-7-3-6-3-8-2zM12 475c-5 2-6 3-8 9-2 4-2 5-2 72l2 70c6 10 5 10 42 10 31 0 32 0 35-2 7-5 8-8 8-19 0-8 0-10 2-11 1 0 2 0 9 10s14 18 18 20c3 2 5 2 40 2h37l4-3c5-2 6-2 14 1 15 6 39 7 60 3l13-2a2277 2277 0 0148 2l24 1 1 11 1 12 5 4c4 2 5 3 36 3s32 0 36-3c7-4 8-5 8-17l1-11h14a101 101 0 0061-11l8-7c5-5 6-6 7-5l1 22c0 23 1 27 6 30 3 1 7 2 37 2 31 0 33-1 37-3 7-3 9-6 9-17 0-9 2-12 5-10l18 1c22 0 33-2 52-14l6-5 7-4 4 3c5 7 19 15 34 18 15 4 47 2 59-3 2-1 4 0 7 1 3 2 6 2 24 2 31 0 44-1 47-3 6-4 8-7 8-14 0-6-1-7-3-11l-3-4v-27c0-44-3-53-20-63-14-8-30-12-59-12-49-2-75 6-88 23l-5 7c0 2-3 1-5-3a80 80 0 00-44-26c-10-2-36-2-46 0a755 755 0 00-76 1c-6 2-11 11-11 21 0 7-1 7-10-2-6-7-10-10-16-12l-8-4-2-1a100 100 0 00-52-3l-45 1-37 1-4 3c-3 4-3 5-4 10-1 6-2 7-5 4-9-9-21-15-38-18-30-6-69-4-94 4-11 4-13 5-20 12-8 7-12 14-14 22-1 6 0 15 2 17s1 5-2 9l-3 5-2 4c-2 3-2 3-4 2l-29-35c-2-3-2-7 0-7l4-3 16-13c28-22 29-24 30-32 0-5 0-6-3-10-2-3-5-5-6-5a581 581 0 00-78 0c-3 1-14 11-18 15-3 3-5 2-7-3 0-3-2-6-3-8-4-5-5-5-39-6-28 0-32 0-34 2zm59 13l1 22 1 21a500 500 0 0049-43c3-1 57-2 58 0s-1 3-9 10l-35 27c-7 7-11 10-11 12l15 19a814 814 0 0128 34l15 17 5 7v4l-30 1h-28l-3-3-4-5a960 960 0 00-25-33l-6-8c-2-3-5-5-6-5l-12 10-3 3 1 19-1 20c-1 2-5 2-26 2-22 0-24 0-26-2l-1-64 1-64c1-2 2-2 26-2l26 1zm763 30c16 2 18 3 23 5 8 4 10 6 13 12l3 5v32l2 37c3 8 3 8-24 8-21 0-22 0-24-2l-2-4-1-4-10 4c-11 6-20 8-37 8-22 0-33-3-43-13-7-7-9-11-7-20 2-10 14-19 30-22l33-5c21-2 27-3 29-5l4-4c4-8-5-14-19-14-10 0-17 2-21 6l-3 4h-23c-24 0-24 0-23-6 3-8 19-18 36-21 20-3 47-3 64-1zm-521 1c14 3 22 6 27 12 6 7 6 11 6 44a179 179 0 003 43l-25 1c-24 0-25 0-26-2-1-1-2-3-1-4 1-3-3-4-8-1l-7 4a109 109 0 01-66 1c-6-2-13-7-16-12-3-4-3-5-3-12s0-8 3-12c5-7 8-9 22-14l11-3 37-4c17-2 22-4 25-9 4-9-10-17-27-14-8 1-11 3-15 7l-2 3h-23l-23-1c-2-2 0-8 4-12a61 61 0 0137-15c16-2 53-2 67 0zm176 0c19 4 36 18 42 36v28c-4 17-17 28-38 34a104 104 0 01-45-1l-15-8-3-2c-2 1-2 4-2 22l-1 23c-2 2-49 2-51 0s-1-129 0-131h49l1 5c0 6 2 7 7 3 6-5 10-7 18-9 10-2 28-2 38 0zm183 0c23 6 41 28 41 50 0 14-7 32-15 38a63 63 0 01-40 15c-17 1-32-3-41-10l-6-3c-2 1-3 9-3 27 0 15 0 16-2 16a335 335 0 01-50 0l-1-67 1-65h51v5c0 6 1 7 7 2 8-5 11-7 19-8 9-2 30-2 39 0z"/>
    <path d="M817 572l-21 5c-3 0-13 4-15 6-2 3-1 8 1 11 5 4 9 5 19 5 11-1 16-3 20-8 2-4 2-6 2-12 0-8 0-9-7-7zm-531 3l-15 3c-12 3-15 4-17 6l-3 6c0 5 1 6 6 9 4 2 6 2 15 2 9-1 11-1 15-3 5-4 8-9 8-18v-6h-4l-5 1zm156-30c-9 4-14 12-13 25 0 6 0 8 3 12 4 8 9 10 21 10 7 0 9 0 13-2l8-7c2-4 3-5 3-15 0-12-2-16-9-20-4-3-5-3-14-4l-12 1zm184 0c-12 2-18 11-17 27 1 10 4 16 10 20 4 2 5 2 14 2 10 0 13-1 18-6 9-8 9-29 1-37-6-5-16-8-25-6z"/>
  </g>
</svg>