<svg xmlns="http://www.w3.org/2000/svg" viewBox="0 0 28 18.158">
  <defs/>
  <path fill="#0f0c0c" d="M13.89 7.513c.0606.0248.15985.0248.22049 0l3.0909-1.2926c.0441-.0193.0441-.04823 0-.06615l-3.0909-1.294c-.0606-.0248-.15985-.0248-.22049 0l-3.0923 1.294c-.0427.01792-.0427.04685 0 .06615zm6.6118-1.6261c.11438.05099.19293.16536.19293.29903 0 .13505-.0799.24942-.19431.30042l-6.259 2.6169c-.13229.0565-.35002.0565-.48369 0l-6.2577-2.6169c-.11576-.05099-.19568-.16536-.19568-.30042 0-.13367.0799-.24942.19568-.29903l6.2577-2.6169c.13367-.0565.3514-.0565.48369 0zm7.0928-.32797c.24115.10749.40514.34726.40514.62701 0 .28112-.16674.5209-.4079.62838l-13.086 5.4722c-.27837.11576-.7345.11576-1.0129 0l-13.084-5.4722c-.24116-.10611-.40928-.34726-.40928-.62838 0-.27974.16812-.5209.40928-.62701l13.084-5.4722c.27836-.11575.73449-.11575 1.0129 0zm-13.969-3.8806l-10.512 4.3959c-.14745.06201-.14745.16261 0 .22462l10.512 4.3959c.20671.08682.54295.08682.74827 0l10.513-4.3959c.14745-.06202.14745-.16261 0-.22462l-10.513-4.3959c-.20532-.08544-.54156-.08544-.74827 0"/>
  <path fill="#0f0c0c" fill-rule="evenodd" d="M3 14.461v2.045c0 1.1576.81441 1.6509 1.8686 1.6509 1.0542 0 1.87-.49334 1.87-1.6509v-2.045H5.4915v1.9444c0 .44511-.10887.84474-.62287.84474-.51263 0-.62288-.39963-.62288-.84474V14.461h-1.2457m19.013 1.819c0-.62839.35278-1.0873.87505-1.0873.55397 0 .86679.47542.86679 1.0294 0 .66972-.32935 1.119-.86679 1.119-.47542 0-.87505-.45062-.87505-1.0611m.88746-1.9017c-1.1934 0-2.1029.69316-2.1029 1.8934 0 1.192.9095 1.8865 2.1029 1.8865 1.192 0 2.1015-.69453 2.1015-1.8865 0-1.2003-.9095-1.8934-2.1015-1.8934m-10.815-.0014c-.51263 0-.99081.20808-1.283.69453-.1943-.47267-.61736-.69453-1.13-.69453-.56913 0-1.068.23013-1.3188.74965h-.0138v-.66559h-1.1369v3.6132h1.2485v-1.5255c0-.77722.26321-1.1314.70693-1.1314.35416 0 .50023.30592.50023.7152v1.9417h1.2485v-1.5255c0-.77722.26321-1.1314.70694-1.1314.35416 0 .50023.30592.50023.7152v1.9417h1.2485v-2.1291c0-.97841-.23702-1.5682-1.2774-1.5682m3.7304 2.8732c-.43546 0-.79788-.41341-.79788-.96463 0-.56637.31832-.98667.79788-.98667.50712 0 .79099.43546.79099.93569 0 .6022-.29765 1.0156-.79099 1.0156m.49472-2.8746c-.50023 0-.92329.1447-1.2416.54708h-.0138v-1.7432h-1.2554v4.892h1.1507v-.64492h.0138c.15985.40239.66559.72898 1.2416.72898 1.0749 0 1.6509-.88883 1.6509-1.9568 0-.87368-.54846-1.8231-1.5462-1.8231m2.989.75103h-.0138v-.66559h-1.1383v3.6132h1.2485v-1.5255c0-.70831.32659-1.1314.9095-1.1314.14607 0 .28112 0 .4203.04272l.001-1.0514c-.11162-.01654-.2384-.0303-.35967-.0303-.54157 0-.853.29077-1.068.74828"/>
</svg>