<svg xmlns="http://www.w3.org/2000/svg" viewBox="0 0 265.6 300">
  <defs/>
  <path d="M130 0c-21 0-42 9-61 18C48 29 25 36 1 36L0 79c1 48 11 97 37 138a238 238 0 0096 83c38-19 73-46 96-83 26-41 35-90 36-138V36c-24 0-47-7-68-18a148 148 0 00-64-18h-3z"/>
  <path fill="#fff" d="M133 13h-2c-28 1-52 16-77 26-13 5-26 9-40 10-2 51 3 105 28 151 20 37 53 65 91 85 37-20 70-48 91-85 24-46 30-100 28-151-14-1-28-5-41-10-25-10-49-25-76-26h-2z"/>
  <path d="M133 30h-2c-28 2-51 19-77 27l-24 7c0 46 7 93 30 133 18 29 44 52 73 69 29-17 55-40 72-69 24-40 31-87 30-133l-23-7c-26-8-50-25-78-27h-1z"/>
  <path fill="#fff" d="M133 54l-18 56H57l47 34-18 55 47-34 47 34-18-55 47-34h-58l-18-56z"/>
</svg>