<svg xmlns="http://www.w3.org/2000/svg" version="1.0" viewBox="0 0 382 442">
  <defs/>
  <path fill="#92062A" d="M191 0C143 63 79 86 0 70c-5 156 59 279 191 372A414 414 0 00382 70c-79 16-143-7-191-70z"/>
  <path fill="#FFF" d="M191 6C143 66 81 89 4 75 1 226 63 347 191 437A409 409 0 00378 75c-77 14-139-9-187-69z"/>
  <path fill="#92062A" d="M191 33C145 82 89 102 22 95c0 43 7 83 19 121h300c12-38 18-78 19-121-67 7-124-13-169-62z"/>
  <path fill="#006039" d="M221 226c-26-5-55-5-86 0H44c27 73 76 137 147 190 71-53 120-117 146-190H221z"/>
  <path fill="#FFF" d="M234 130l-5 12h3c1 3 0 5-1 8-11 30-7 46 15 47-16-24-9-43 20-58l-5-10c-9 5-18 5-27 1zM160 129c-17 6-29 6-35 1l-16 17c9-3 14 3 15 17l19-8v-8c19-10 42-13 68-9l1-7 2-5c-23-4-41-3-54 2z"/>
  <path fill="#FFF" d="M157 91l-15 15c11-2 18 5 19 20 6-1 13-3 20-3l-1-14c15-1 28-4 38-10 4 4 10 8 17 10-25 16-29 31-11 47 2-25 15-41 37-48-15-8-29-16-40-25-36 12-57 15-64 8z"/>
  <path fill="#FFF" d="M223 157l-4-4c-12-2-24-2-35-2v14l40 3 4-14h-2v2l-1 1h-1-1z"/>
  <path fill="#FFF" d="M182 185v-10-36l-20 4v66l20-2v-8l14-2 2 2-3 10c-14 0-32 1-52 5l1-40c-7 2-14 6-20 10 2 49-4 90-16 122l7 7c13-3 23 2 29 13l7-11c-5-7-12-12-20-14 5-23 9-47 11-73 20-3 36-4 48-4h4c0 13 8 22 22 27v-5c-7-7-11-14-11-21l7 1c6 2 10 5 12 9v-26l-15 1 9-12-7-14-20 3c-5 1-8 0-9-2z"/>
  <path fill="#FFF" d="M181 226l-19 1-1 44h19l1-45zM161 167l-1-13c-38 7-68 28-89 63l-8 11c3 1 6 4 8 8 11 19 26 34 43 43l4-17c-13-7-23-17-28-30-2-6-1-11 2-17 15-26 38-42 69-48z"/>
  <path fill="#FFF" d="M139 269l-3 18a149 149 0 0091-7c16-7 33-9 48-7 1-10 5-18 11-22 7-4 12-3 16 4h9c-5-6-3-12 7-18-15 0-25-2-29-7a165 165 0 01-150 39z"/>
  <path fill="#FFF" d="M180 292h-21c-2 16-8 29-16 38l6 10c9-11 21-13 36-4 16 8 31 10 48 5-33-5-50-21-53-49z"/>
  <path fill="#FFF" d="M159 334l-7 5c6 8 12 12 18 11-5-5-9-10-11-16zM284 171l-6-8c-11 1-23 0-34-4a23 23 0 00-4 13c10 4 16 11 18 20 3 11 14 17 33 15 5-1 6-4 3-9s-7-4-11 1c-9-1-14-5-14-13 0-7 5-12 15-15z"/>
</svg>