<svg xmlns="http://www.w3.org/2000/svg" viewBox="0 0 300 300">
  <defs/>
  <path fill="#FFF" fill-rule="evenodd" d="M150 .5c82.566 0 149.5 66.935 149.5 149.502 0 82.564-66.934 149.498-149.5 149.498S.5 232.566.5 150.002C.5 67.435 67.434.5 150 .5" clip-rule="evenodd"/>
  <path fill="#006437" fill-rule="evenodd" d="M150 8.499c78.149 0 141.499 63.354 141.499 141.5 0 78.152-63.35 141.505-141.499 141.505C71.851 291.505 8.5 228.151 8.5 150 8.5 71.853 71.851 8.499 150 8.499m0-3.742c80.213 0 145.241 65.028 145.241 145.242 0 80.216-65.028 145.246-145.241 145.246C69.783 295.245 4.759 230.216 4.759 150 4.759 69.785 69.783 4.757 150 4.757" clip-rule="evenodd"/>
  <path fill="#006437" fill-rule="evenodd" d="M221.258 47.161l1.68 3.898-2.866 3.12 4.203-.402 2.067 3.705.917-4.146 4.144-.833-3.639-2.16.492-4.22-3.165 2.814-3.833-1.776zm12.353 13.844l1.165 5.107-4.174 3.132 5.189.467 1.67 4.958 2.045-4.819 5.21-.068-3.928-3.443 1.544-5.002-4.467 2.691-4.254-3.023zm10.575 17.73l.074 6.752-6.111 2.801 6.407 2.013.759 6.713 3.886-5.508 6.578 1.348-4.006-5.419 3.308-5.876-6.362 2.158-4.533-4.982zm7.57 22.691l-2.043 8.382-8.451 1.51 7.298 4.547-1.186 8.544 6.551-5.571 7.718 3.773-3.242-7.99 5.953-6.216-8.56.637-4.038-7.616zm-203.537 0l2.044 8.382 8.45 1.51-7.293 4.547 1.183 8.544-6.55-5.571-7.718 3.773 3.244-7.99-5.954-6.216 8.558.637 4.036-7.616zm7.573-22.691l-.074 6.752 6.11 2.801-6.408 2.013-.757 6.713-3.885-5.508-6.578 1.348 4.006-5.419-3.309-5.876 6.362 2.158 4.533-4.982zm10.573-17.73l-1.164 5.107 4.173 3.132-5.188.467-1.672 4.958-2.044-4.819-5.208-.068 3.925-3.443-1.544-5.002 4.468 2.691 4.254-3.023zm12.357-13.844l-1.68 3.898 2.865 3.12-4.204-.402-2.067 3.705-.917-4.146-4.142-.833 3.638-2.16-.495-4.22 3.166 2.814 3.836-1.776zm159.443 95.876c1.118-2.421 2.108-4.944 3.067-7.562-2.622-.464-4.737-.834-6.782-1.197-4.95-.793-8.216.834-9.824 3.009-1.612 2.177-2.616 4.229-3.786 7.194-1.17 2.964-1.099 8.391 7.26 12.116 7.278 3.361 12.734 6.717 24.285-3.142 6.77-5.45 9.347-3.607 11.822-3.097 3.542 1.191 3.913 2.625 3.221 6.344-.928 4.597-6.122 2.157-8.618 1.176-.956 3.657-1.96 6.462-3.572 10.404 1.51.633 3.394 1.489 5.087 2.203 7.697 3.086 16.379 1.411 18.396-7.908 1.208-6.259.84-9.305.84-10.393-.11-5.791-4.368-10.936-11.74-12.262-7.191-1.444-11.99-1.839-22.05 5.728-5.162 3.827-6.018 5.271-10.698 3.413-2.492-.945-4.881-1.785-3.485-4.704 1.063-2.239 2.167-2.621 6.577-1.322m-14.247 28.212l22.6 9.27c-1.755 3.515-2.62 5.305-5.034 8.923l-17.566-18.193zm-12.121-14.475c-1.915 2.01-3.89 4.107-6.168 6.084l49.086 61.618c2.946-4.035 5.969-8.873 8.501-13.381l-13.427-13.4c2.89-4.688 4.146-7.369 6.508-12.85l15.273 6.661c1.717-4.432 3.043-8.485 3.969-12.756l-63.742-21.976zm-4.856 51.005c5.397-3.504 8.666-6.261 2.004-14.069l-7.432-9.375c-4.536-6.194-7.181-2.845-10.579-1.284l16.007 24.728zm11.411 51.211l-39.213-80.163c5.036-1.845 9.298-3.947 13.559-6.469 5.397-3.476 9.9.05 14.431 4.233l11.461 10.659c10.86 10.104 8.895 17.639 6.484 20.066l28.505 18.725c-3.088 4.268-6.128 8.007-9.56 11.564l-27.821-22.47-3.243 2.195 20.764 30.368c-4.508 3.949-10.204 8.096-15.367 11.292m-49.564-77.032c2.854-.676 4.725-1.186 7.413-2.077l36.616 82.448c-4.959 2.713-11.049 5.711-17.188 8.006l-26.841-88.377zm-2.768.565c-5.734 1.016-9.026 1.443-16.517 1.504l-1.943 94.506c14.736.392 29.721-2.016 42.42-6.249l-4.23-15.969c-6.799 2.18-13.43 3.8-20.038 4.394l-3.748-32.278c6.837-.73 10.565-1.554 15.438-3.142l-3.242-12.019c-4.542 1.307-8.896 2.009-13.654 2.553l-2.636-22.811c3.561-.105 7.289-.726 10.573-1.561l-2.423-8.928zm-89.024 73.09l42.187-77.538c2.477 1.021 5.293 1.927 7.801 2.674l-4.625 39.938c1.26-2.887 15.661-37.412 15.661-37.56 2.197.356 6.382.735 8.217.813l-5.671 94.258c-4.83-.131-12.281-1.251-17.549-2.498l8.049-47.571-20.244 32.486-.513-39.505c-1.676 5.01-18.411 43.321-18.411 43.464-5.99-3.063-10.887-6.128-14.902-8.961m-26.859-25.091l54.459-60.102c-.205-.05 4.923 3.106 7.386 4.359L69.927 230.56c4.4 4.365 6.065 5.744 11.426 9.774l-7.622 12.949c-7.997-5.754-18.491-15.978-23.594-22.761m28.888-58.18l-24.333 10.153c1.827 3.581 3.584 6.375 6.028 9.612l18.305-19.765zm10.594-14.419a94.256 94.256 0 006.808 6.407L48.4 228.388c-3.074-4.015-6.245-8.76-8.854-13.162l13.456-14.52c-2.965-4.471-5.591-8.267-8.018-13.961L29.417 193.6c-1.732-4.521-3.194-9.529-3.914-12.994l64.116-22.683zm-21.813-15.669l-17.253 4.687c.209 1.513.478 2.645.934 4.158 1.252 4.134 3.187 4.067 8.042 2.298l6.311-2.355c2.527-1.129 5.051-2.266 3.72-5.146-.867-1.574-1.754-3.721-1.754-3.642m5.447-9.667c1.097 2.866 4.347 9.116 5.68 11.188 3.278 5.022 1.107 10.736-5.008 13.868l-12.524 6.386c-5.975 2.977-17.298 1.653-19.439-6.364-.957-2.734-1.397-4.897-2.047-7.824l-17.907 4.991c-.424-6.481-.48-7.613-.096-13.131l51.341-9.114zM150 25.36c41.522 0 75.181 33.659 75.181 75.182 0 41.521-33.658 75.177-75.181 75.177-41.521 0-75.18-33.656-75.18-75.177 0-41.522 33.659-75.182 75.18-75.182m0-12.794c75.903 0 137.433 61.53 137.433 137.434 0 75.906-61.529 137.436-137.433 137.436S12.567 225.905 12.567 150c0-75.904 61.53-137.434 137.433-137.434" clip-rule="evenodd"/>
  <path fill="#006437" fill-rule="evenodd" d="M205.645 60.634c-32.617-7.645-52.525-25.313-55.638-28.451-3.04 3.11-23.606 21.032-55.55 28.451-.633 69.825 50.997 105.711 55.55 108.776 4.531-3.026 56.096-37.65 55.638-108.776m-54.818-29.592c17.851 16.029 38.254 24.301 55.242 28.309-12.538-16.966-32.589-28.041-55.242-28.309M93.9 59.376c16.472-3.856 36.686-12.344 55.243-28.334-22.657.273-42.712 11.356-55.243 28.334m54.904 110.989c-35.331-24.602-56.774-68.148-55.801-109.748-7.986 11.34-12.683 25.165-12.683 40.09 0 38.083 30.554 69.021 68.484 69.658m58.225-109.676c1.014 41.841-19.658 84.717-55.808 109.676 37.912-.659 68.443-31.59 68.443-69.659.001-14.894-4.676-28.694-12.635-40.017M149.993 29.21c39.393 0 71.335 31.935 71.335 71.335 0 39.395-31.942 71.331-71.335 71.331-39.396 0-71.334-31.937-71.334-71.331 0-39.4 31.938-71.335 71.334-71.335" clip-rule="evenodd"/>
  <path fill="#006437" d="M129.771 87.432V68.391c0-3.718-4.293-4.72-7.774-4.508 3.431-5.464 8.52-7.29 13.395-3.155 3.27-4.588 11.283-10.925 18.802-10.694 33.722.523 35.18 48.922 11.332 57.587-23.089 8.391-26.66-21.25-12.229-20.232 9.401.816 6.446 16.515-2.013 11.582 3.297 9.629 24.422-.226 13.654-19.171 7.145-7.281.938-21.806-9.571-21.951-8.91-.124-12.642 8.231-12.674 13.896l-.005 53.609c-.107 9.49 1.24 16.892 9.066 21.024-7.913 3.708-16.143-1.672-17.595-9.794-3.404 1.431-6.986.439-9.851-4.162 2.932-.381 5.494-2.309 5.462-6.842V94.988l-3.936-3.707 3.937-3.849zm-5.139-24.8c2.679-.095 6.521 1.832 6.521 5.745v19.574l-3.388 3.331 3.388 3.13v31.618c0 2.213-.501 5.687-4.431 7.191 2.86 3.457 5.55 2.828 8.642 1.12.659 9.525 8.252 12.668 13.277 11.595-6.576-4.827-7.276-12.474-7.33-19.118V71.616c-.003-5.439 3.753-15.078 14.084-15.054 11.546.025 17.941 15.167 11.164 23.236 11.795 21.823-16.369 32.781-17.219 16.318 9.172 7.844 11.318-6.813 3.737-7.433-12.354-1.013-8.574 25.908 12.495 17.465 21.836-8.935 20.823-54.007-11.378-54.848-7.414-.194-14.2 5.683-18.631 11.425-3.436-3.403-7.015-4.266-10.931-.093m30.738 95.861h-10.711c2.699 2.213 4.633 3.559 5.373 4.024.683-.465 2.614-1.805 5.338-4.024m5.296-4.606H139.41a114.346 114.346 0 004.559 4.036h12.093a118.166 118.166 0 004.604-4.036m4.642-4.524h-30.492a122.24 122.24 0 003.986 3.953h22.48a130.148 130.148 0 004.026-3.953m-.04-51.218h1.633a19.4 19.4 0 01-.342.568h-1.757c.159-.184.315-.373.466-.568m-7.459 0h7.459c-.15.195-.307.384-.466.568h-7.491c.179-.175.346-.362.498-.568m-.591 0h.591a4.51 4.51 0 01-.498.568h-1.07c.368-.12.697-.318.977-.568m10.328-4.689h1.006c-.032.192-.071.381-.109.571h-1.055c.057-.19.11-.382.158-.571m-8.444 0h8.444c-.048.189-.101.381-.158.571h-8.272a8.993 8.993 0 00-.014-.571m-.758 0h.758c.011.189.017.379.014.571h-.684a7.212 7.212 0 00-.088-.571m-13.289 0h.615c-.052.187-.1.376-.14.571h-.602c.039-.195.082-.385.127-.571m-2.364 0h2.364c-.045.187-.088.376-.126.571h-2.238v-.571zm-.931 0h.931v.571h-.934l.003-.571zm26.169-4.542h.8c.017.192.027.379.038.568h-.808a12.216 12.216 0 00-.03-.568m-10.88 0h10.88c.015.192.025.379.03.568H157.6a6.157 6.157 0 00-.551-.568m-2.159 0h2.159c.196.176.379.368.551.568h-1.749a6.002 6.002 0 00-.961-.568m-7.057 0h2.06a7.222 7.222 0 00-1.197.568h-1.492c.196-.2.407-.395.629-.568m-5.142 0h5.142a6.514 6.514 0 00-.629.568h-4.512v-.568zm-.926 0h.926v.568h-.926v-.568zm25.209-4.629h.843c.058.192.112.381.165.571h-.824c-.056-.187-.122-.379-.184-.571m-24.283 0h24.283c.063.192.128.384.184.571h-24.466v-.571zm-.917 0h.917v.571h-.917v-.571zm23.275-4.605h1.158c-.052.061-.104.122-.155.179.065.132.123.261.186.393h-1.052c-.082-.151-.158-.302-.246-.453.038-.039.071-.077.109-.119m-22.355 0h22.355c-.038.042-.071.081-.109.119.088.151.164.302.246.453h-22.492v-.572zm-.912 0h.912v.572h-.912v-.572zm25.831-4.623h.911a8.415 8.415 0 01-.142.568h-.935c.062-.189.117-.379.166-.568m-24.919 0h24.919c-.049.189-.104.379-.165.568h-24.754v-.568zm-.903 0h.903v.568h-.903v-.568zm26.132-4.607h.812c.019.189.037.382.054.568h-.813c-.011-.186-.033-.379-.053-.568m-25.162 0h25.162c.021.189.042.382.053.568h-25.26c.011-.184.027-.376.045-.568m-.936 0h.937c-.018.192-.035.384-.046.568h-.917a8.54 8.54 0 01.026-.568m24.803-4.627h.87c.08.187.156.379.23.571h-.854c-.08-.192-.159-.384-.246-.571m-22.71 0h22.71c.087.187.166.379.247.571h-23.178c.07-.192.143-.379.221-.571m-.969 0h.969a16.75 16.75 0 00-.221.571h-.976c.073-.192.15-.379.228-.571m20.41-4.604h1.311c.161.187.315.376.466.568h-1.21c-.185-.192-.37-.384-.567-.568m-16.46 0h16.46c.196.184.382.376.566.568H146.37c.172-.192.346-.384.529-.568m-.933 0h.933c-.183.184-.357.376-.528.568h-.922c.166-.192.337-.381.517-.568m4.972 46.157h3.567c.988.294 2.048.492 3.179.568h-5.634a13.49 13.49 0 01-1.112-.568m-8.247 0h8.248c.357.203.728.396 1.112.568h-9.36v-.568zm-.957 0h.957v.568h-.96l.003-.568zm4.684-4.626h1.397c.147.192.301.382.462.569h-1.521a12.698 12.698 0 01-.338-.569m-3.727 0h3.728c.107.192.219.382.337.569h-4.065v-.569zm-.949 0h.949v.569h-.951l.002-.569zm3.112-4.605h.78c.045.187.092.379.148.568h-.829c-.035-.189-.07-.381-.099-.568m-2.163 0h2.164c.029.187.063.379.099.568h-2.263v-.568zm-.939 0h.939v.568h-.942l.003-.568zm24.143-45.587h-.928a24.438 24.438 0 00-1.637-.569h1.229c.458.179.899.367 1.336.569m6.784 4.605h-.272c-.208-.193-.42-.385-.636-.571h.284c.207.188.422.374.624.571m3.83 4.624h-.178c-.127-.189-.248-.381-.383-.568h.174c.13.189.261.379.387.568m2.461 4.607h-.183c-.082-.192-.169-.379-.251-.571h.18c.086.192.172.379.254.571m1.578 4.624h-.224c-.048-.187-.101-.379-.153-.568h.221l.156.568m.882 4.607h-.27c-.022-.189-.048-.381-.071-.568h.263l.078.568m.282 4.626h-.316c.003-.192.003-.378.003-.572h.313c.002.194 0 .381 0 .572m-.282 4.605h-.363c.022-.189.052-.379.074-.571h.354c-.019.192-.044.382-.065.571m-.882 4.626h-.414c.055-.189.108-.378.153-.568h.4c-.048.19-.092.379-.139.568m-1.538 4.544h-.466c.079-.192.167-.381.246-.571h.451c-.077.19-.152.382-.231.571m-2.507 4.687h-.56c.126-.187.258-.379.382-.568h.552c-.12.192-.252.379-.374.568m-3.912 4.605h-.845a24.6 24.6 0 00.66-.569h.788c-.194.196-.398.382-.603.569m-8.014 4.626h-4.62c1.11-.074 2.28-.261 3.502-.568h2.688c-.209.08-.411.167-.62.244-.322.118-.638.226-.95.324m-21.886 4.608h-.968l.002-.571h.965v.571zm-.003 4.623h-.971v-.571h.973l-.002.571zm0 4.608h-.979v-.572h.979v.572zm-.007 4.513h-.98v-.571h.983c-.003.192-.003.381-.003.571m.167 4.605h-1.146l-.01-.083v-.486h1.115c.01.19.024.383.041.569m.697 4.626h-.998a19.78 19.78 0 01-.148-.568h1.02c.039.192.081.379.126.568m1.719 4.605h-.979a17.73 17.73 0 01-.278-.571h.96c.094.195.192.385.297.571m3.958 4.629h-1.524a14.392 14.392 0 01-.587-.571h1.411c.225.192.458.384.7.571m-10.984-.571h1.239c.202.197.413.384.629.571h-1.222a15.146 15.146 0 01-.646-.571m-3.197-4.629h1.245c.083.189.172.381.268.571h-1.26a12.944 12.944 0 01-.253-.571m-8.733-4.602h1.255c.29.197.588.387.901.568h-1.521a8.93 8.93 0 01-.635-.568m2.036-4.626h1.664a5.13 5.13 0 01-.086.431c-.032.046-.063.094-.097.138h-2.022c.192-.174.372-.366.541-.569m1.427-4.608h.351l-.002.571h-.368c.012-.184.017-.374.019-.571m0-4.514h.357v.572h-.357v-.572zm0-4.607h.365v.571h-.365v-.571zm0-4.624h.374l-.003.571h-.371v-.571zm0-4.604h.38v.568h-.38v-.568zm0-4.626h.388v.569h-.388v-.569zm0-4.605h.397l-.003.568h-.394v-.568zm-1.628-4.689h.839l.502.571h-.736l-.605-.571zm1.628-9.171h.383v.571h-.383v-.571zm0-4.605h.394v.572h-.394v-.572zm0-4.623h.405l-.002.568h-.402v-.568zm0-4.607h.413v.568h-.413v-.568zm-.941-4.627h1.22c.054.179.092.371.116.571h-.917a3.646 3.646 0 00-.419-.571m-4.749-4.604h.942c-.171.181-.341.371-.509.568h-.964c.174-.195.351-.387.531-.568m15.118-4.627h1.639c-.206.188-.41.377-.609.571h-1.654c.202-.191.409-.383.624-.571m6.846-4.604h1.556c-.407.172-.808.365-1.205.569h-1.467c.367-.198.741-.389 1.116-.569m15.545-4.058h-23.454a126.51 126.51 0 01-6.776 4.059h14.686c-.375.18-.749.371-1.116.569h-14.604a127.789 127.789 0 01-8.073 4.035H139.2c-.214.188-.421.38-.625.571h-17.591a124.343 124.343 0 01-10.377 4.056h13.476c-.18.181-.357.373-.531.568h-14.666c-2.788.9-5.69 1.724-8.693 2.441-.002.535 0 1.065.005 1.595h28.633c.158.176.298.365.418.571h-29.043c.023 1.365.064 2.719.129 4.056h29.438v.568h-29.409c.07 1.361.164 2.707.279 4.039h29.129v.568h-29.083c.125 1.367.27 2.721.434 4.055h28.649v.572h-28.577c.174 1.362.371 2.707.588 4.034h27.989v.571h-27.893c.23 1.371.48 2.724.753 4.058H130.174l-.58.568H102.75c.28 1.343.582 2.669.899 3.973h24.494l.605.571h-24.955c.348 1.396.72 2.765 1.109 4.119h24.869v.568h-24.703c.402 1.368.827 2.713 1.269 4.036h23.434v.569h-23.243c.469 1.378.956 2.729 1.462 4.058h21.781v.568H108.21a117.5 117.5 0 001.645 4.036h19.917v.571h-19.669a112.16 112.16 0 001.858 4.052h17.811v.571h-17.535a114.415 114.415 0 002.058 4.036h15.477v.572H114.6c.73 1.345 1.473 2.661 2.229 3.942h12.942c-.002.197-.008.387-.02.571h-12.584a126.224 126.224 0 002.513 4.036h8.663a5.41 5.41 0 01-.541.569h-7.751c.92 1.397 1.851 2.75 2.785 4.058h3.472c.208.206.421.393.635.568h-3.7c1.012 1.4 2.026 2.743 3.038 4.034h8.759c.081.195.166.385.252.571h-8.561a131.802 131.802 0 003.359 4.058h8.146c.209.197.427.387.646.571h-8.294a126.455 126.455 0 003.681 4.034h31.585a132.742 132.742 0 003.713-4.034H149.22a19.49 19.49 0 01-.701-.571h21.546a130.867 130.867 0 003.383-4.058h-28.187a10.269 10.269 0 01-.297-.571h28.933a119.918 119.918 0 003.06-4.034h-33.414a20.4 20.4 0 01-.126-.568h33.951a121.262 121.262 0 002.786-4.058h-37.308c-.017-.187-.03-.379-.042-.569h37.725a135.92 135.92 0 002.519-4.036h-40.369c0-.19 0-.379.003-.571h40.699c.759-1.279 1.5-2.594 2.228-3.942h-42.922v-.572h43.229a112.688 112.688 0 002.052-4.036h-45.281l.002-.571h45.552c.635-1.32 1.253-2.671 1.851-4.052h-47.403v-.571h47.646a114.323 114.323 0 001.636-4.036h-27.396c.312-.099.628-.206.949-.324.209-.077.411-.165.62-.244h26.046c.499-1.329.981-2.68 1.444-4.058h-21.046c.205-.187.409-.374.604-.569h20.634a113.4 113.4 0 001.252-4.036h-18.577c.122-.189.254-.376.374-.568h18.368a120.11 120.11 0 001.096-4.119H179.01c.079-.189.154-.381.231-.571h17.237c.315-1.304.612-2.63.886-3.973h-16.816c.047-.189.091-.378.14-.568h16.792c.267-1.334.514-2.688.74-4.058h-16.79c.021-.189.046-.379.064-.571h16.815c.215-1.327.403-2.672.576-4.034h-17.174c0-.192.002-.378 0-.572h17.24c.159-1.334.302-2.688.417-4.055H181.43l-.078-.568h18.067c.108-1.332.197-2.677.264-4.039h-19.135l-.156-.568h19.318c.061-1.337.098-2.691.115-4.056H178.97c-.082-.192-.168-.379-.254-.571h21.115c.005-.53.005-1.06.005-1.595a120.072 120.072 0 01-8.875-2.441h-14.452c-.126-.189-.257-.379-.387-.568h13.083a122.333 122.333 0 01-10.529-4.056h-5.997c-.202-.197-.417-.383-.624-.571h5.341a120.656 120.656 0 01-8.08-4.035h-3.421c-.437-.202-.878-.39-1.335-.569h3.729a111.988 111.988 0 01-6.699-4.059m-6.478-4.605h-10.344a105.452 105.452 0 01-5.752 4.038h21.713a98.3 98.3 0 01-5.617-4.038m-9.596-.568h8.869c-2.257-1.798-3.738-3.167-4.379-3.829-.624.657-2.153 2.029-4.49 3.829m55.663 20.463c1.249 38.5-18.522 78.606-51.173 101.215-31.874-22.246-52.365-62.962-51.158-101.208 14.803-3.446 34.387-11.047 51.155-26.17 16.114 15.175 35.891 22.567 51.176 26.163"/>
</svg>