<svg xmlns="http://www.w3.org/2000/svg" viewBox="0 0 193 193">
  <defs/>
  <path fill="none" d="M0 0h193v193H0V0z" clip-rule="evenodd"/>
  <path fill="#fff" fill-rule="evenodd" stroke="#000" stroke-miterlimit="2.6" stroke-width="3" d="M26 81V48c50 12 32-35 32-35 12-6 38-6 38-6s27 0 39 6c0 0-16 47 32 35v33c0 82-71 105-71 105S26 163 26 81z" clip-rule="evenodd"/>
  <path fill-rule="evenodd" d="M32 82V56c44 7 35-37 35-37 11-5 29-5 29-5s19 0 30 5c0 0-10 44 34 37v26c1 75-64 96-64 96s-64-21-64-96z" clip-rule="evenodd"/>
  <path fill="#fff" fill-rule="evenodd" d="M162 57c-29-1-32-15-32-15l-94 80 18 28 108-93z" clip-rule="evenodd"/>
  <path fill="none" stroke="#000" stroke-miterlimit="2.6" d="M32 82V56m0 0c44 7 35-37 35-37 11-5 29-5 29-5s19 0 30 5c0 0-10 44 34 37m0 0v26m0 0c1 75-64 96-64 96s-64-21-64-96"/>
  <path fill="#fff" fill-rule="evenodd" d="M85 22l1 4 6-4s2-2 2 2l-2 2v10l-4 4h14l-4-4s-3-4 1-5l1-6-2-1-5-5-8 3z" clip-rule="evenodd"/>
  <path fill-rule="evenodd" d="M93 29l1 2h1l-1-3s-2 0-1 1zm3 5l1 4 1-1-1-2-1-1zm-4 5l1-4s1-1 1 1l-1 3h-1z" clip-rule="evenodd"/>
  <path fill="#fff" fill-rule="evenodd" stroke="#000" stroke-miterlimit="2.6" d="M104 67H77c0-8-5-13-5-13h31l1 13z" clip-rule="evenodd"/>
  <path fill="none" stroke="#000" stroke-dasharray="10 6" stroke-miterlimit="2.6" stroke-width="2" d="M78 58h26"/>
  <path fill="#fff" fill-rule="evenodd" stroke="#000" stroke-miterlimit="2.6" d="M83 107c15-1 23 6 23 6 20-22 7-47 7-47H65s12 25-7 47c0 0 11-6 25-6z" clip-rule="evenodd"/>
  <path fill="none" stroke="#000" stroke-dasharray="10 6" stroke-miterlimit="2.6" stroke-width="2" d="M71 71h42"/>
  <path fill="#fff" fill-rule="evenodd" stroke="#000" stroke-miterlimit="2.6" d="M110 40H81s4 4 2 12c0 0 12-7 28 0 0 0 2-8-1-12z" clip-rule="evenodd"/>
  <path fill="#fff" fill-rule="evenodd" stroke="#000" stroke-miterlimit="2.6" d="M126 51H86s8 13 0 21c0 0 25-10 36 2 0 0 9-11 4-23z" clip-rule="evenodd"/>
  <path fill="#fff" fill-rule="evenodd" stroke="#000" stroke-miterlimit="2.6" d="M90 115c-12 0-24 6-24 6 24-23 6-48 6-48h61s8 39-25 48c0 0-7-6-18-6z" clip-rule="evenodd"/>
  <path fill="none" stroke="#000" stroke-dasharray="15 9" stroke-miterlimit="2.6" stroke-width="3" d="M79 78h53"/>
  <path fill="none" stroke="#000" stroke-dasharray="10 6" stroke-miterlimit="2.6" stroke-width="2" d="M92 55h34"/>
  <path fill="none" stroke="#000" stroke-dasharray="5 3" stroke-miterlimit="2.6" d="M86 43h24"/>
  <path fill="#cd3529" fill-rule="evenodd" d="M114 99s-4-3-8-3c0 4 3 8 3 8H99s3-4 3-8c-4 0-8 3-8 3V89s4 3 8 3c0-4-3-8-3-8h10s-3 4-3 8c4 0 8-3 8-3v10z" clip-rule="evenodd"/>
  <path fill="none" stroke="#fff" stroke-miterlimit="2.6" stroke-width="3" d="M45 90V64m0 0s10-1 10 7c0 0 2 7-10 7"/>
  <path fill="none" stroke="#000" stroke-miterlimit="2.6" stroke-width="5" d="M60 72c-2-2-6-4-10-4-6 0-11 4-11 9 0 6 5 10 11 10 5 0 9-2 11-5"/>
  <path fill="none" stroke="#fff" stroke-miterlimit="2.6" stroke-width="3" d="M60 72c-2-2-6-4-10-4-6 0-11 4-11 9 0 6 5 10 11 10 5 0 9-2 11-5"/>
  <path fill="none" stroke="#000" stroke-miterlimit="2.6" stroke-width="5" d="M60 91s-4 0-4-5c0 0 1-3-2-6"/>
  <path fill="none" stroke="#fff" stroke-miterlimit="2.6" stroke-width="3" d="M60 91s-4 0-4-5c0 0 1-8-9-8"/>
  <path fill="none" stroke="#000" stroke-miterlimit="2.6" stroke-width="5" d="M45 75v-9"/>
  <path fill="none" stroke="#fff" stroke-miterlimit="2.6" stroke-width="3" d="M45 75v-9"/>
  <path fill="#fff" fill-rule="evenodd" d="M47 65l-3 1c0-3-2-4-2-4h3l2 3zm2 28h-7s2-1 2-3h3c0 2 2 3 2 3z" clip-rule="evenodd"/>
  <path fill="none" stroke="#fff" stroke-miterlimit="2.6" stroke-width="3" d="M106 151c-2-3-5-4-8-4-5 0-10 5-10 11 0 7 5 12 10 12 3 0 6-2 8-5m0 4v1h-7"/>
  <path fill="none" stroke="#000" stroke-miterlimit="2.6" stroke-width="5" d="M95 163l3 6 3-6m4-8l3-7"/>
  <path fill="none" stroke="#fff" stroke-miterlimit="2.6" stroke-width="3" d="M87 146l11 23 11-23"/>
  <path fill="none" stroke="#000" stroke-miterlimit="2.6" stroke-width="2" d="M105 158h-4m0 0s0 2 3 2m0 0l1-2"/>
  <path fill="#fff" fill-rule="evenodd" d="M105 158h-4s0 2 3 2l1-2z" clip-rule="evenodd"/>
  <path fill="none" stroke="#fff" stroke-miterlimit="2.6" stroke-width="3" d="M106 158v12"/>
  <path fill="none" stroke="#000" stroke-miterlimit="2.6" stroke-width="5" d="M98 147c-5 0-10 5-10 11"/>
  <path fill="none" stroke="#fff" stroke-miterlimit="2.6" stroke-width="3" d="M98 147c-5 0-10 5-10 11"/>
  <path fill="#fff" fill-rule="evenodd" d="M110 147c2 0 3-2 3-2h-7s1 2 2 2h2zm-24 0c-2 0-3-2-3-2h7s-1 2-3 2h-1z" clip-rule="evenodd"/>
  <path fill-rule="evenodd" stroke="#000" stroke-miterlimit="2.6" d="M74 122s-2 9 21 9c0 0 9 0 14-5l9-9s-5-9-10-9c0 0-13-1-34 14z" clip-rule="evenodd"/>
  <path fill="#dfa055" fill-rule="evenodd" stroke="#000" stroke-miterlimit="2.6" d="M101 130s2-13 4-17c0 0-3-5 3-5 0 0 2-1 3 2 0 0 0 3-2 4 0 0-3 2-5 15l-3 1z" clip-rule="evenodd"/>
  <path fill="#dfa055" fill-rule="evenodd" d="M86 116l14-6h3s1 2-2 3c0 0-7 1-24 11h-2l1-2 10-6zM96 116l5-1 1 1s1 2-2 3c0 0-7 1-19 7 0 0-2 2-3 1 0 0-1-1 1-3l17-8zm-2 6l7-2 1 1s0 3-2 3c0 0-7 1-13 4l-3 1-2-1s-2 0 3-2l9-4zm0 8l-6-1 1-1 9-3s2 0 2 2c0 0 1 2-3 3h-3zm20-17s3 3 1 4c0 0-1 2-3 0 0 0-2-2-1-3 0 0 1-4 3-1zm-4 3l2 3s1 2-1 3l-3-4s0-3 2-2zm-2 5s3 2 1 3h-2l-1-2s1-2 2-1zm-2 4s2 1 1 2c0 0-2 2-2 0l1-2z" clip-rule="evenodd"/>
  <path fill="#fff" fill-rule="evenodd" d="M89 137s7 0 9-1c0 0-6 7-9 1zm20-6l10 1s-7 5-10-1zm18 1l6-1s-3 4-6 1zm-7 6h5s-2-3-5 0zm-17-6l-4 1s2 2 4-1zm-1 4l7 1s-2 4-7-1zm-19-3l7-1s-2 5-7 1z" clip-rule="evenodd"/>
  <path fill-rule="evenodd" d="M68 133l6-1 4 2-3-3h-6l-6-2s2 3 5 4zm2 2H58s0 2 4 2h5l6 2-3-4z" clip-rule="evenodd"/>
</svg>