<svg xmlns="http://www.w3.org/2000/svg" version="1.0" viewBox="0 0 165 176">
  <defs/>
  <path fill="#E2001A" d="M154 33L136 9c-18 11-36 7-54-9-18 16-36 20-53 9L11 33c10 19 10 35-1 50-10 14-13 28-7 41 5 13 18 22 38 29s34 14 41 23c8-9 22-16 42-23s33-16 38-29 3-27-8-41-10-31 0-50z"/>
  <path fill="#fff" d="M151 34l-24-18c-15 4-30 0-45-13l-2 1 64 51c1-7 3-14 7-21zM29 12l-3 4 134 106c4-9 3-18-2-28L59 16c-10 3-20 1-30-4zM11 85c-5 7-8 14-9 21l83 64c5-4 11-8 19-11L11 85zM127 150c8-3 15-7 20-11L13 33c6 12 8 22 7 33l107 84z"/>
  <path fill="#E2001A" d="M70 26h-2l1 1 1 17c-6 2-11 6-14 11v2l-1 2-4 1v-1c0-5-1-8-4-8h-8v1c-1 3 1 5 3 8l2 6-15 12-15 10h-1l1 1 13 13 15 11c-2 5-5 9-8 12l-1 2h2l13-4 1-1v-6l4 2-1 5 1 1-10 15 13 10 1-2h10l2-13c5 2 11 2 18 2s14-1 20-4l5 10 10-6v-1l-6-8c7-5 13-12 18-20l1-1h-1c-7-8-16-13-25-18 9-4 16-11 22-20h1v-1c-8-13-20-21-37-23V26h-1c-8 3-16 3-24 0zm12 11c2 0 3 2 3 6h-5c0-4 1-6 2-6zm14 22v-9c6 2 11 6 15 12l-15-3zM84 49h2v9h-9l1-8 6-1zm3 17l1 6 3 14a65 65 0 01-16 0l1-19 1-1a73 73 0 0110 0zM69 53v6l-6 1 6-7zm-8 16l7-2-1 15c-4-2-6-6-6-12v-1zm-5 18v2c-1 2-4 3-8 3h-1v1l-1 8-6-8H30v-6h10v-1l5-7v6h8c2 0 3 1 3 2zm1 21c1-6 3-10 8-13l-3 15-5-2zm17-13v-4a48 48 0 0118 0l1 4H74zm33 14l-5-15c6 3 11 7 14 13l-9 2zm-35-3h24l2 5c-10 1-19 2-26 1v-6zm28-23l-3-15 15 3c-1 6-5 10-12 12zm1 35l2 7c-4 2-10 3-18 3l-15-1 1-6 30-3zm-40 1l-1 3-2-3h3zm49-3l5-2c0 2-2 4-3 5l-2-3z"/>
  <path fill="#E2001A" d="M132 72l-3 1-1 3 1 3 3 1 3-1 1-3-1-3-3-1zM135 94l-2 1h-1l-1 3 1 3h1l2 1 3-1 1-3-1-3-3-1z"/>
  <g fill="#fff">
    <path d="M70 28l1 14v2l3-1V33l-1-2 1-2 1 4v10h3l2-6 2-2c3 0 4 3 5 8v5l1 11h2v-7c-1-9-3-15-6-18v-1c5 3 7 9 7 19l1 7h3l-1-10v-5-16c-8 2-16 2-24 0zM95 45v3c8 2 14 7 18 15l7 2c1 1 2 3 1 4 0 2-2 3-6 2h-2c-1 7-6 11-13 14l2 7c7 3 12 7 15 14l4-1 3 3 1 2-2 2-6 2-4 7 1 2 3-7c7-2 9-5 9-8-1-4-3-5-9-6l-5-6c6 1 12 5 18 11-4 8-10 14-16 16l2 3c6-5 12-11 17-20-8-7-17-13-26-17l-2-1 2-1c9-3 17-10 23-19-7-13-18-20-35-23zm15 9c9 4 15 9 17 13-3 6-8 11-15 14l3-7c4-1 6-3 8-5 1-3-2-5-9-9l-4-6z"/>
    <path d="M85 46v-2a63 63 0 00-14 2c-6 1-11 5-14 9v2l-1 3-6 2v-1c0-5-1-8-3-8h-7c0 2 1 4 3 5l3 8 15-6c2-4 5-7 9-9l7-3 7-1h2l-1-1zM59 56l1-2c3-3 7-4 9-4l-5 4-5 2zm-15 0v-2l2 1 2 6h-2l-1-5h-1zM91 67h-2l1 5 2 14 3 9h-1v1H72l1-5-7 3-2 16 6 2 1-7h26v1l1-1 1 5 7-1-6-16h1-1a185 185 0 01-4-26h-2-1v5l7 28v1H70v-2h28l-6-27-1-5z"/>
    <path d="M94 66h2l20 4 4-2-1-1c-7-3-15-5-24-6l-4-1H77v5a132 132 0 0111 0 54 54 0 016 1zm-3-4l1 1-1 1h-1l-1-1 1-1h1zm-9 0v2h-1-1v-1-1h2zm27 4l-1 1-1-1v-1h2v1zm-10-3h1v2h-1-1v-1-1h1zm17 4h1a1 1 0 010 2h-1-1a1 1 0 010-2h1zM76 59l1-9-6 2-1 8v6l-2 17 5 2 2-18v-2l1-6z"/>
    <path d="M60 69l-4 2c-1 8 5 14 15 17-10 2-16 9-18 20h-3l1-13c7 0 9-3 9-8-1-4-4-6-11-6v-6l-2 2v6h7l3 3v4c-1 2-4 4-8 4a55 55 0 01-3 13l-2 6-7 12c4-1 8-2 10-4v-8c1-2 3-4 6-3l2 3-1 4v7a24 24 0 005 4l1-4-4-6a19 19 0 01-1-10c1-7 5-12 10-15 3-2 5-3 8-3a49 49 0 0119-1l-1-2-5 1-12-1c-3-1-5-1-7-3-5-3-8-8-7-15z"/>
    <path d="M68 65l1-5a68 68 0 00-23 8c-6 3-11 6-16 11L16 89l12 11c4 5 9 9 15 12a120 120 0 003-9l-7-9H28v-9h11l7-9c3-4 8-7 14-9l8-2zm-5 0h-1l-1 1v-1h-1l1-1v-1l1 1 1 1zm-13 3l1-1 1-1 1 1v2h-1-1l-1-1zm-8 6l-1-1 1-2h2l1 2-1 1h-1-1zM24 90l-1 1-1-1-1-1 1-1 1-1 1 1 1 1-1 1zm10-10v2h-3v-2-1h3v1zm-3 20l-1-1 1-2h2l1 2-1 1h-2zm9 6l-1-1 1-1 1-1 1 1v2l-1 1-1-1zM49 115l4 1v-4l-1-1-3 3v1zM45 138l2 2 8-13-1-2-9 13zM48 141l3 2 8-12v-1l-3-2-8 13zM107 110l-8 2a91 91 0 01-36 0l-6-3v1l1 7 4 1 3 1h5a114 114 0 0039-4 205 205 0 0014-6v-1l-2-1-14 3zm-5 5l-1 1-1-1v-1l1-1 1 1v1zm-11 2h-1v-1-1h2l1 1-1 1h-1zm-8 1l-1-1v-1l1-1 1 1v1l-1 1zm-8-1l-1 1-1-1v-1l1-1 1 1v1zm-12-1v-1l1-1 1 1v1l-1 1-1-1zm58-8v2h-1-1v-1-1a1 1 0 012 0zm-10 3h1a1 1 0 010 2h-1a1 1 0 01-1-1v-1h1zM102 118a167 167 0 006 13l5 9 7-5a114 114 0 01-11-19l-7 2zM87 135c7 0 13-2 19-4l-2-5-19 4-16-1v4l18 2zM64 120h-2l-1 8v1l-3 16h8l2-18 1-7h-3l-4 23-1-1c2-7 3-14 3-22zM55 147l1-1 2-11-6 9 3 3zM131 74l-1 2a3 3 0 002 3l2-1 1-2-1-2-2-1-1 1zm0 2l1-1h1v2h-1l-1-1zM135 95l-1 1-1 2 1 2 1 1a3 3 0 003-3l-1-2-2-1zm0 4l-1-1 1-1h1v2h-1z"/>
  </g>
</svg>