<svg xmlns="http://www.w3.org/2000/svg" viewBox="-1 0 901 431">
  <defs/>
  <path d="M144 4c-2 3-2 9-2 94l-1 91-8-8c-8-9-17-15-26-19-11-5-16-6-31-6a76 76 0 00-76 73c-1 23 6 41 21 57 11 11 22 17 36 21a74 74 0 0074-21l10-8v15l2 15c3 3 6 3 9 0l2-1V156a4281 4281 0 00-2-154c0-2-1-2-3-2-3 0-4 1-5 4zm374-1c-2 3-2 9-2 93l-1 91c-1 2-2 1-6-3-8-11-23-21-38-26l-21-1c-15 0-16 0-25 3-20 7-36 22-45 41-5 12-6 17-6 31s1 18 5 31c5 13 22 31 35 38 13 6 31 10 45 8 10-1 22-5 30-10l16-13 10-9v14c0 14 0 15 2 17 3 3 6 3 9-1l3-2V156a1686 1686 0 00-3-154c0-2-1-2-3-2-3 0-4 1-5 3zM182 16c-2 2-2 3-2 17 0 11 0 15 2 17 1 3 5 3 8 0 2-2 2-3 2-17s0-15-2-17l-4-2-4 2zm489 3l-20 10a107 107 0 01-38 3l-17-3-11-3a476 476 0 01-39-10c-5 1-2 3 7 7a384 384 0 0152 28 186 186 0 0154 56l3 5 1 2 3 7 2 6 26 1c28 1 27 1 22-9-8-16-25-33-45-48-8-5-11-8-11-9l9-3c13-2 27-6 39-12l11-7c0-2-38-25-41-25l-7 4zm149 100c-14 1-28 4-41 10-8 3-24 13-31 20-6 6-16 17-19 23-5 8-6 7-6-3s-1-12-5-12c-7 0-7-5-7 77 0 69 0 73 2 74 2 3 8 2 9 0l1-41 1-45c3-20 11-39 24-55 10-12 32-27 48-32l27-4c7 0 10-2 10-6 0-3-4-7-7-7l-6 1zm-638 39c-2 2-2 3-2 75s0 73 2 75c3 3 5 3 8 0l2-3v-72c0-72 0-73-2-75l-4-2-4 2zm87 0a76 76 0 00-58 55c-3 9-3 32 0 41 6 18 15 31 29 41 13 10 27 14 45 14 17 0 29-4 42-12 6-4 20-17 20-19l2-1 1 14c0 14 0 15 2 17 3 3 6 3 9-1 2-2 2-3 2-74l-1-74c-2-3-6-3-9-1-1 2-2 3-2 8l-2 23-5-6a77 77 0 00-44-26c-8-1-24-1-31 1z"/>
  <path d="M807 157a78 78 0 00-50 118c14 22 37 34 64 34 12 0 19-1 30-6 12-4 23-13 29-21 5-8 6-5 6 11 0 11 0 12 2 14 3 3 6 4 8 1l3-1 1-74v-74l-4-1c-3-2-4-2-6-1-3 2-4 5-4 17l-1 14-7-7a71 71 0 00-55-24h-16zm-209 3c-17 4-26 9-37 21-9 9-14 18-19 30-2 8-3 10-3 23 1 15 2 20 7 31 13 29 41 46 73 45a79 79 0 0067-49 78 78 0 00-38-96c-13-6-36-9-51-5zM178 386l-22 1-1 20c0 18 0 20 2 21l23 1c22-1 23-1 23-3s-1-1-20-2h-19l-1-7c0-6 0-7 2-8l19-1c17 0 18 0 18-2s0-2-18-2l-20-1v-12l20-1h19v-2l-2-2h-23zm96 0l-4 1-1 19c0 21 0 23 4 23 3 0 4-2 4-7 0-9 1-13 3-13l12 6 23 14c2 0 3 0 3-2l-7-6c-16-10-18-12-10-12 4 0 14-3 17-5s5-6 4-9-8-7-16-8c-9-1-26-2-32-1zm36 7c4 3 5 5 3 7-4 4-8 5-22 5h-13l-1-6c-1-9 0-9 16-9 12 1 15 1 17 3zm151-7l-1 2c1 2 3 2 8 2l9 1 1 18 1 18 4 2c3 0 4-3 4-21l1-17 9-1 8-1v-3h-44zm262 0l-6 2-9 3c-18 9-20 22-4 31 9 5 22 7 40 7 18-1 20-1 28-5 6-3 11-9 11-13-1-1-2-2-17-2-13 0-17 1-18 2l12 1 12 1c2 2 0 5-5 7-17 9-48 7-60-4-6-5-7-8-4-13 2-4 8-9 11-9l3-1c1-2 10-3 20-4 9 0 16 1 27 4 7 2 12 2 12 0 0-1-7-4-17-6-9-2-31-3-36-1zm-699 1v40l4 2c4 0 4-1 4-13l1-8 20 1 22 1 1 9c0 8 1 10 3 10 4 0 5-2 5-20l-1-20c0-3 0-3-3-3h-3l-1 8c0 11 1 11-22 11l-21-2-1-9v-8h-4l-4 1zm367 0l-1 20c0 20 0 22 4 22l3-2c2-3 1-38 0-40h-6zm460 1l-1 20c0 14 1 18 2 19 1 2 4 2 22 2 23 0 26 0 26-3v-1l-21-1-20-1-1-6c0-9 0-9 23-9 18 0 19 0 19-2s-1-2-20-2l-21-1-1-6c0-4 0-5 2-6l21-1c18 0 19 0 19-2s-1-2-24-2c-22 0-24 0-25 2zm-268 7l-18 19c-11 11-12 13-10 14 2 2 6 0 12-7l6-6h37l8 7c7 7 10 9 12 5 0-1-35-39-38-40-1 0-4 2-9 8zm16 7c8 8 7 9-7 9-10 0-12 0-12-2l12-13 7 6z"/>
</svg>