<svg xmlns="http://www.w3.org/2000/svg" viewBox="0 0 350 420">
  <defs/>
  <g fill-rule="evenodd" clip-rule="evenodd">
    <path d="M339 160V11H10v149c2 111 57 195 165 252 107-57 162-141 164-252z"/>
    <path fill="red" d="M332 160v-2H17v2c0 16 1 32 4 48h307c3-16 4-32 4-48zM178 109h155V60H178zM171 18H17v134h154zM35 257c7 17 15 33 26 49h228c10-15 19-32 25-49H35zM104 355c20 18 44 35 71 49 27-14 50-31 70-49H104z"/>
    <path fill="#fff" d="M78 28c-12-6-20-7-24-3 9 2 13 7 12 16v73c4 2 7 3 11 3l3 1V99c15 1 25 9 31 22 5 14 12 21 18 21 7 1 11-5 13-18-10 11-18 8-24-8-7-17-19-26-38-27V34l9-1c7 0 14 2 20 8 6 5 9 12 10 20 0 6-2 12-7 18v8h4l7-5c4-4 7-8 8-13 1-3 2-5 4-6l-4-8c-1-8-5-15-11-21-6-7-15-10-25-10-6 0-12 1-17 4z"/>
    <path fill="#fff" d="M92 36H82v26c2 3 4 4 7 3 4-1 5-4 3-8s-2-11 0-21z"/>
    <path fill="#fff" d="M91 49c4 1 5 3 5 6v35c7 2 12 6 16 12h16c2 0 3 1 3 4-1 2-3 5-8 8 11 1 15-4 14-15-1-12 2-20 9-25-6-2-12 4-18 16h-18V58h6l-4-11H95l-4 2zM64 41v-1-2c-5 2-10 5-14 9-9 9-15 19-19 33l-2 5 2 6c3 9 8 17 15 25 8 8 18 12 30 12 7 0 13-1 18-3v-8c-4 3-10 4-17 3-10-1-18-5-23-13-5-7-8-16-8-25 0-10 3-18 8-25 3-4 6-7 10-9v-7zM96 107v23c0 8-1 12-4 14 5 0 10-1 13-4 4 3 9 4 14 4-5-5-8-10-9-18l-2-4c-2-6-6-12-12-15zM76 131l-10-1c-1 6-4 12-9 17 7-1 13-3 17-6 4 3 10 5 16 5-5-4-8-9-9-15h-5zM134 55l1 3h9c3 0 5 3 6 8 3 6 6 10 12 11-6-8-8-16-5-25 2-9 0-16-5-22 1 11-1 17-5 17h-15l2 8z"/>
  </g>
</svg>